<?xml version="1.0" encoding="utf-8"?>
<!-- Generator: Adobe Illustrator 22.1.0, SVG Export Plug-In . SVG Version: 6.00 Build 0)  -->
<svg version="1.1" id="Layer_1" xmlns="http://www.w3.org/2000/svg" xmlns:xlink="http://www.w3.org/1999/xlink" x="0px" y="0px"
	 viewBox="0 0 89 89" style="enable-background:new 0 0 89 89;" xml:space="preserve">
<title>Confirmation Icon</title>
<desc>Created with Sketch.</desc>
<g id="Eaton_B-Line_Submittal_Prepare_-Submittal_Download_Confirmation" transform="translate(-143.000000, -240.000000)">
	<g id="Submittal-Prep-Modal_x2F_Download-Confirmation" transform="translate(0.000000, 142.000000)">
		<g id="Confirmation-Icon" transform="translate(147.000000, 102.000000)">
			<path d="M40.5,85C16,85-4,65-4,40.5C-4,16,16-4,40.5-4C65-4,85,16,85,40.5C85,65,65,85,40.5,85z M40.5,4C20.4,4,4,20.4,4,40.5
				S20.4,77,40.5,77S77,60.6,77,40.5S60.6,4,40.5,4z"/>
			<polygon id="Fill-1" points="50.3,25.5 32.8,43.1 28.4,35.8 19.3,35.8 31.2,55.6 61.3,25.5 			"/>
		</g>
	</g>
</g>
</svg>
