<?xml version="1.0" encoding="UTF-8"?>
<svg width="40px" height="48px" viewBox="0 0 40 48" version="1.1" xmlns="http://www.w3.org/2000/svg" xmlns:xlink="http://www.w3.org/1999/xlink">
    <!-- Generator: Sketch 50.2 (55047) - http://www.bohemiancoding.com/sketch -->
    <title>Pages Icon</title>
    <desc>Created with Sketch.</desc>
    <defs></defs>
    <g id="Symbols" stroke="none" stroke-width="1" fill="none" fill-rule="evenodd">
        <g id="Pages-Icon" transform="translate(-4.000000, 0.000000)" fill="#231F20" fill-rule="nonzero">
            <g transform="translate(4.000000, 0.000000)" id="Shape">
                <path d="M20.8995327,29.7482927 L8.17757009,29.7482927 L8.17757009,25.4556098 L20.8995327,25.4556098 L20.8995327,29.7482927 Z M20.8995327,17.0146341 L8.17757009,17.0146341 L8.17757009,21.3073171 L20.8995327,21.3073171 L20.8995327,17.0146341 Z M20.8995327,8.57365854 L8.17757009,8.57365854 L8.17757009,12.8780488 L20.8995327,12.8780488 L20.8995327,8.57365854 Z M40,9.67414634 L40,48 L10.9034268,48 L10.9034268,38.3219512 L0,38.3219512 L0,0 L29.0926791,0 L29.0926791,9.67414634 L40,9.67414634 Z M5.37383178,33.6663415 L23.7227414,33.6663415 L23.7227414,4.71804878 L5.37383178,4.71804878 L5.37383178,33.6663415 Z M34.6261682,14.3570732 L29.0926791,14.3570732 L29.0926791,38.3219512 L16.2811526,38.3219512 L16.2811526,43.2936585 L34.6261682,43.2936585 L34.6261682,14.3570732 Z"></path>
            </g>
        </g>
    </g>
</svg>