<svg width="20" height="28" viewBox="0 0 20 28" fill="none" xmlns="http://www.w3.org/2000/svg">
<path d="M0 0.887085L14.5 0.887085" stroke="white"/>
<line y1="23.3387" x2="14.25" y2="23.3387" stroke="white"/>
<line x1="14" y1="1.38708" x2="14" y2="10.6774" stroke="white"/>
<line x1="14" y1="14.5484" x2="14" y2="23.8387" stroke="white"/>
<path d="M0 1L8.625 2.16129V27.3226L0 23.8387V1Z" fill="white"/>
<path d="M19.3536 12.5794C19.5488 12.3841 19.5488 12.0675 19.3536 11.8722L16.1716 8.69027C15.9763 8.495 15.6597 8.495 15.4645 8.69027C15.2692 8.88553 15.2692 9.20211 15.4645 9.39737L18.2929 12.2258L15.4645 15.0542C15.2692 15.2495 15.2692 15.5661 15.4645 15.7613C15.6597 15.9566 15.9763 15.9566 16.1716 15.7613L19.3536 12.5794ZM11.25 12.7258L15.375 12.7258V11.7258L11.25 11.7258V12.7258ZM15.375 12.7258H19V11.7258H15.375V12.7258Z" fill="white"/>
</svg>
